<svg xmlns="http://www.w3.org/2000/svg" viewBox="0 0 512 512">
  <defs>
    <linearGradient id="bgGrad" x1="0" x2="1" y1="0" y2="1">
      <stop offset="0" stop-color="#3FB0FF"/>
      <stop offset="1" stop-color="#1E9BFF"/>
    </linearGradient>
    <linearGradient id="bubbleGrad" x1="0" x2="0" y1="0" y2="1">
      <stop offset="0" stop-color="#0B4A7A"/>
      <stop offset="1" stop-color="#073656"/>
    </linearGradient>
  </defs>
  <!-- lingkaran biru -->
  <circle cx="256" cy="256" r="240" fill="url(#bgGrad)"/>
  <!-- gelombang bawah -->
  <path d="M0 350c70-40 160-35 230 0 70 35 160 35 230 0v112H0V350z" fill="#0B78E6"/>
  <!-- balon chat -->
  <path d="M128 144h256c13 0 24 11 24 24v144c0 13-11 24-24 24H192l-48 32v-32h-16c-13 0-24-11-24-24V168c0-13 11-24 24-24z"
        fill="url(#bubbleGrad)"/>
  <!-- garis putih -->
  <rect x="160" y="200" rx="4" fill="#FFFFFF"/>
  <!-- titik chat -->
  <circle cx="208" cy="264" r="8" fill="#1E9BFF"/>
  <circle cx="256" cy="264" r="8" fill="#1E9BFF"/>
  <circle cx="304" cy="264" r="8" fill="#1E9BFF"/>
</svg>